<?xml version="1.0" encoding="utf-8"?>
<!-- Generator: Adobe Illustrator 27.5.0, SVG Export Plug-In . SVG Version: 6.00 Build 0)  -->
<svg version="1.1" xmlns="http://www.w3.org/2000/svg" xmlns:xlink="http://www.w3.org/1999/xlink" x="0px" y="0px"
	 viewBox="0 0 750 500" style="enable-background:new 0 0 750 500;" xml:space="preserve">
<g id="BACKGROUND">
	<rect style="fill:#FFB5BF;" width="750" height="500"/>
</g>
<g id="OBJECTS">
	<g>
		<g>
			<defs>
				<rect id="SVGID_1_" width="750" height="500"/>
			</defs>
			<clipPath id="SVGID_00000050643185063264977970000008636480685238434983_">
				<use xlink:href="#SVGID_1_"  style="overflow:visible;"/>
			</clipPath>
			<g style="clip-path:url(#SVGID_00000050643185063264977970000008636480685238434983_);">
				<path style="fill:#FF9CAB;" d="M-10.125,104.195c0,0,56.531,1.383,77.625,44.144c21.094,42.762,47.136,34.117,64.463,61.013
					c17.327,26.896,4.38,35.896,41.677,59.447s55.091,11.155,63.069,52.79c7.978,41.636,77.089,74.461,77.089,74.461V500
					l-323.922,7.212V104.195z"/>
				<path style="fill:#FF9CAB;" d="M761.905,143.289c0,0-21.321-31.5-56.785-34.312s-56.84,12.938-86.09,17.156
					c-29.25,4.219-46.253-3.147-71.22,13.192c-24.967,16.339-27.779,41.265-54.217,49.896c-26.438,8.631-67.5,27.899-84.937,52.858
					c-17.437,24.96-52.188,31.829-74.596,54.483c-22.408,22.654-2.392,154.414-2.392,154.414l424.05,38.25L761.905,143.289z"/>
			</g>
			<path style="clip-path:url(#SVGID_00000050643185063264977970000008636480685238434983_);fill:#FF425F;" d="M701.042,241.271
				c-1.373,11.932-12.586,24.675-25.046,38.361c-9.857,10.826-13.195,24.623-14.16,29.919c-3.151-7.37-6.401-14.635-9.748-21.791
				c-2.29-4.897-3.168-10.338-2.507-15.704c2.096-17.004,8.887-44.011,18.513-56.376c12.746-16.373,19.06-38.373,16.898-55.837
				c-2.162-17.464-4.341-38.496-3.202-59.467c-16.195,14.134-21.919,36.263-22.433,54.838c-0.514,18.576-2.497,44.757-11.796,58.807
				c-7.681,11.606-10.398,34.695-11.112,42.383c-0.901-1.692-1.809-3.374-2.724-5.05c-1.926-3.528-2.803-7.527-2.5-11.535
				c0.523-6.903,0.65-17.527-1.695-29.094c-4.054-19.998-0.081-60.263-0.132-73.091c-0.203-51.048-25.101-86.14-24.789-96.865
				c0,0-10.556,14.295-11.305,30.653c-0.749,16.359,13.96,45.82,13.016,63.899c-0.943,18.08-5.114,34.043-0.041,52.612
				c3.424,12.535,7.985,26.529,10.59,34.306c-8.063-13.093-16.507-25.687-25.296-37.74c-3.469-4.757-5.993-10.13-7.46-15.832
				c-6.753-26.239-21.203-40.031-34.411-49.165c-14.962-10.347-25.182-35.386-44.472-47.296
				c-26.794-16.542-57.55-16.454-57.55-16.454c1.817,9.327,23.417,37.388,44.848,50.843c21.431,13.455,28.401,19.338,37.71,36.217
				c7.639,13.852,22.136,23.585,42.201,31.797c8.025,3.285,14.946,8.795,19.989,15.849c1.813,2.536,3.611,5.096,5.393,7.679
				c-4.995-2.394-16.731-7.109-32.389-7.52c-21.061-0.552-44.868-20.432-63.185-22.757s-35.437,3.578-35.437,3.578
				s15.587,5.021,26.372,18.415c10.784,13.394,22.226,27.132,57.608,20.742c27.126-4.899,45.422,2.099,58.065,10.244
				c4.336,2.793,7.937,6.582,10.573,11.016l0.037,0.062c11.055,18.601,21.346,38.205,30.858,58.685
				c-4.251-4.745-12.326-12.737-24.088-20.092c-18.221-11.394-38.338-0.748-60.013-17.299s-55.046-1.412-55.046-1.412
				c5.064,2.132,21.188,19.71,37.931,28.657c16.742,8.946,64.741,11.385,78.815,14.203c7.774,1.557,17.784,8.153,25.188,13.748
				c5.094,3.849,9.041,8.998,11.441,14.914c7.964,19.626,15.243,39.957,21.798,60.923l2.671-0.835
				c-3.742-11.968-7.724-23.725-11.931-35.265c-7.215-19.788-2.661-42.147,12.394-56.876c1.605-1.57,3.261-3.061,4.949-4.449
				c15.795-12.984,27.098-26.814,24.403-38.95c-2.695-12.136-2.804-37.977-2.804-37.977S702.415,229.339,701.042,241.271z"/>
			<path style="clip-path:url(#SVGID_00000050643185063264977970000008636480685238434983_);fill:#FF425F;" d="M24.848,268.061
				c3.359,11.532,16.554,22.209,31.138,33.606c11.536,9.016,17.146,22.055,18.988,27.113c1.868-7.795,3.85-15.503,5.946-23.12
				c1.435-5.212,1.386-10.724-0.168-15.902c-4.924-16.41-16.159-41.891-27.726-52.462c-15.317-13.998-25.239-34.623-26.043-52.202
				c-0.804-17.579-2.192-38.678-6.84-59.159c18.34,11.211,27.702,32.062,31.331,50.287c3.629,18.225,9.985,43.701,21.513,55.988
				c9.523,10.149,16.082,32.453,18.077,39.912c0.604-1.819,1.216-3.631,1.836-5.436c1.305-3.802,1.498-7.891,0.525-11.791
				c-1.676-6.717-3.587-17.169-3.219-28.965c0.635-20.395-10.049-59.419-12.156-72.074c-8.381-50.356,10.265-89.134,8.155-99.654
				c0,0,12.808,12.317,16.296,28.317c3.488,16-6.06,47.514-2.09,65.178c3.969,17.664,10.763,32.699,8.884,51.857
				c-1.269,12.932-3.413,27.493-4.673,35.598c5.748-14.262,11.954-28.096,18.593-41.455c2.62-5.272,4.205-10.994,4.693-16.861
				c2.246-27.001,14.173-43.026,25.657-54.249c13.01-12.715,18.876-39.115,35.889-54.098c23.632-20.811,53.965-25.894,53.965-25.894
				c-0.223,9.499-16.799,40.792-35.664,57.658c-18.865,16.866-24.747,23.837-31.086,42.04c-5.202,14.939-17.857,26.97-36.256,38.438
				c-7.359,4.587-13.255,11.182-17.041,18.984c-1.361,2.805-2.703,5.63-4.025,8.476c4.521-3.199,15.298-9.82,30.664-12.857
				c20.669-4.084,40.795-27.683,58.461-33.053s35.534-2.429,35.534-2.429s-14.522,7.57-22.901,22.586
				c-8.38,15.016-17.349,30.482-53.302,30.13c-27.563-0.27-44.422,9.704-55.517,19.859c-3.805,3.483-6.718,7.823-8.571,12.637
				l-0.026,0.067c-7.771,20.194-14.62,41.25-20.555,63.037c3.393-5.392,10.01-14.628,20.368-23.855
				c16.047-14.294,37.667-7.182,56.251-27.14c18.584-19.959,54.025-10.645,54.025-10.645c-4.634,2.953-17.574,22.991-32.574,34.625
				c-15,11.633-61.906,22.105-75.306,27.249c-7.402,2.841-16.16,11.026-22.519,17.786c-4.374,4.65-7.4,10.39-8.771,16.625
				c-4.551,20.685-8.31,41.951-11.248,63.72l-2.773-0.374c1.677-12.426,3.626-24.686,5.834-36.769
				c3.787-20.719-4.461-41.995-21.778-53.984c-1.846-1.278-3.729-2.47-5.627-3.554C21.265,301.71,7.798,289.977,8.415,277.56
				c0.617-12.416-3.619-37.908-3.619-37.908S21.489,256.53,24.848,268.061z"/>
			<path style="clip-path:url(#SVGID_00000050643185063264977970000008636480685238434983_);fill:#FF637B;" d="M-91.968,538.163
				l311.849-93.937c0,0,11.588-57.562,3.713-60s-26.659,47.638-26.659,47.638s20.242-69.201,6.856-70.326
				c-13.385-1.125-34.198,49.536-34.198,49.536s3.089-41.644,10.263-72.871c7.174-31.227,6.612-38.399-4.638-37.626
				c-11.25,0.774-29.25,55.223-36.562,89.311c-6.75-52.537,12.937-127.496-2.25-128.548c-15.187-1.052-25.312,74.743-30.375,120.377
				c-12.937-38.179-3.938-138.297-18.562-139.706c-14.625-1.41-22.5,92.366-17.437,138.853c-18-67.7-18-170.804-34.312-166.221
				c-16.313,4.584-16.313,107.333,4.5,186.458c-19.688-37.875-31.5-159.293-56.812-160.178
				c-25.313-0.884,24.187,170.152,24.187,170.152s-48.375-128.38-63.562-124.958c-15.188,3.422,29.812,139.734,29.812,139.734
				c-38.812-32.812-55.125-97.811-72.562-94.28c-17.438,3.531,21.375,97.843,41.625,117.343
				c-40.5-40.125-59.625-75.672-74.25-68.867c-14.625,6.805,24.188,72.055,54.562,96.242c-21.937-2.813-63.562-45.562-76.5-32.625
				c-12.938,12.938,58.5,63,58.5,63s-49.5-25.313-57.375-14.625C-160.03,502.725-91.968,538.163-91.968,538.163z"/>
			<path style="clip-path:url(#SVGID_00000050643185063264977970000008636480685238434983_);fill:#FF425F;" d="M126.727,415.461
				c-7.444,0-14.372,2.186-20.197,5.938c-7.498-7.612-17.919-12.336-29.448-12.336c-10.421,0-19.934,3.865-27.204,10.228
				c-8.156-8.502-19.622-13.803-32.333-13.803c-24.749,0-44.812,20.063-44.812,44.812c0,24.749,20.063,44.812,44.812,44.812
				c12.657,0,24.08-5.255,32.229-13.693c7.284,6.417,16.838,10.318,27.309,10.318c10.082,0,19.318-3.614,26.493-9.611
				c6.366,5.036,14.405,8.051,23.153,8.051c20.632,0,37.358-16.726,37.358-37.358S147.359,415.461,126.727,415.461z"/>
			<path style="clip-path:url(#SVGID_00000050643185063264977970000008636480685238434983_);fill:#FF637B;" d="M520.241,454.843
				c0,0-19.259-65.078-7.098-72.475c12.161-7.397,24.171,48.194,24.171,48.194s-24.948-125.866-9.761-127.439
				c15.188-1.573,26.438,79.298,29.813,101.271c9.315-23.007-15.25-134.581,0-137.924c15.249-3.343,25.875,104.993,26.437,133.756
				c11.813-22.107-4.536-154.85,13.482-159.016c18.018-4.166,30.393,91.944,23.08,146.417c18.562-58.282,11.25-168.938,31.5-171.036
				c20.25-2.098,16.875,119.572,9.562,162.576c21.937-31.991,23.062-128.468,38.812-130.051s12.375,106.088-8.438,151.109
				c38.25-36.792,37.911-113.802,51.187-115.416s10.688,80.723-14.063,128.971c27.339-20.978,35.438-89.236,50.625-88.409
				c15.188,0.827-1.125,73.512-27,109.805c21.375-16.152,37.687-66.365,52.875-63.809c15.188,2.556-14.964,67.586-32.062,88.04
				c29.812-15.733,35.437-44.577,48.937-38.809c13.5,5.769-38.813,86.614-38.813,86.614L520.241,454.843z"/>
			<path style="clip-path:url(#SVGID_00000050643185063264977970000008636480685238434983_);fill:#FF425F;" d="M615.179,414.214
				c7.423,0.554,14.17,3.25,19.699,7.426c8.044-7.033,18.788-10.968,30.285-10.109c10.392,0.776,19.591,5.338,26.367,12.225
				c8.766-7.871,20.595-12.303,33.271-11.356c24.68,1.843,43.194,23.345,41.35,48.025c-1.843,24.681-23.345,43.194-48.025,41.35
				c-12.622-0.943-23.621-7.034-31.119-16.055c-7.742,5.857-17.56,9.035-28.002,8.256c-10.054-0.751-18.996-5.043-25.703-11.558
				c-6.724,4.548-14.964,6.956-23.688,6.304c-20.575-1.537-36.008-19.461-34.472-40.036
				C576.679,428.111,594.604,412.677,615.179,414.214z"/>
			
				<ellipse style="clip-path:url(#SVGID_00000050643185063264977970000008636480685238434983_);fill:#FFB5BF;" cx="375" cy="564.865" rx="494.382" ry="129.502"/>
			
				<ellipse style="clip-path:url(#SVGID_00000050643185063264977970000008636480685238434983_);fill:#FF9CAB;" cx="375" cy="473.528" rx="205.697" ry="14.916"/>
			<g style="clip-path:url(#SVGID_00000050643185063264977970000008636480685238434983_);">
				<path style="fill:#FFFFFF;" d="M154.684,91.278c-13.158,2.323-15.041,4.206-17.364,17.364
					c-2.323-13.158-4.206-15.041-17.364-17.364c13.158-2.323,15.041-4.206,17.364-17.364
					C139.643,87.072,141.526,88.955,154.684,91.278z"/>
				<path style="fill:#FFFFFF;" d="M738.28,165.216c-15.073,2.661-17.231,4.819-19.892,19.892
					c-2.661-15.073-4.818-17.231-19.892-19.892c15.074-2.661,17.231-4.818,19.892-19.892
					C721.049,160.397,723.207,162.555,738.28,165.216z"/>
				<path style="fill:#FFFFFF;" d="M583.438,99.574c-6.813,1.203-7.788,2.178-8.991,8.991c-1.203-6.813-2.178-7.788-8.991-8.991
					c6.813-1.203,7.788-2.178,8.991-8.991C575.649,97.396,576.625,98.371,583.438,99.574z"/>
				<path style="fill:#FFFFFF;" d="M217.224,135.41c-6.961,1.229-7.957,2.225-9.186,9.186c-1.229-6.961-2.225-7.957-9.186-9.186
					c6.961-1.229,7.957-2.225,9.186-9.186C209.267,133.185,210.263,134.181,217.224,135.41z"/>
				<path style="fill:#FFFFFF;" d="M217.128,334.916c-8.307,1.467-9.496,2.656-10.963,10.963
					c-1.467-8.307-2.656-9.496-10.963-10.963c8.307-1.467,9.496-2.656,10.963-10.963
					C207.632,332.26,208.821,333.449,217.128,334.916z"/>
				<path style="fill:#FFFFFF;" d="M503.274,231.34c-8.307,1.467-9.496,2.656-10.963,10.963c-1.467-8.307-2.656-9.496-10.963-10.963
					c8.307-1.467,9.496-2.656,10.963-10.963C493.778,228.685,494.966,229.874,503.274,231.34z"/>
			</g>
		</g>
		<g>
			<path style="fill:#FFFFFF;" d="M370.719,304.964c-0.752,33.586,12.162,169.514,12.162,169.514h17.407
				c6.419,0,11.641-5.166,11.711-11.585l1.093-100.344L370.719,304.964z"/>
			<path style="fill:#FFFFFF;" d="M546.253,239.081c-4.822,5.871-4.221,14.415,1.249,19.688c7.125,6.87,13.465,14.596,18.754,22.96
				c7.692,12.158,13.145,25.702,15.469,39.731c2.351,14.019,1.477,28.493-2.783,42.177c-4.214,13.711-11.776,26.515-21.398,37.89
				l14.852,13.394c5.87-6.274,11.289-13.079,16.007-20.443c4.719-7.358,8.725-15.279,11.777-23.622
				c3.057-8.338,5.15-17.089,6.18-25.977c1.036-8.889,1.012-17.905,0-26.783c-2.019-17.782-7.96-34.906-16.636-50.307
				c-6.037-10.711-13.381-20.639-21.809-29.59c-5.942-6.311-16.115-5.875-21.616,0.823L546.253,239.081z"/>
			<path style="fill:#FFB5AD;" d="M578.941,363.638c1.45-4.659,2.499-9.41,3.171-14.202c2.342,6.866,5.458,13.633,8.224,19.994
				c3.526,8.11,2.907,17.482-1.858,24.931c-0.025,0.039-0.05,0.078-0.075,0.118c-4.718,7.364-10.138,14.169-16.007,20.443
				l-14.852-13.394C567.165,390.153,574.727,377.349,578.941,363.638z"/>
			<path style="fill:#FFFFFF;" d="M444.217,240.581l14.625,19.518c0,0,45,32.888,78.75,70.763
				c30.118,33.799,46.798,70.137,30.451,123.67c-3.666,12.005-14.842,20.142-27.394,20.142H426.363
				c-5.541,0-10.531-3.35-12.608-8.488c-5.418-13.399-13.893-42.601-9.431-87.176c0.773-7.721-1.815-15.406-7.041-21.143
				c-8.164-8.961-20.08-25.85-26.564-52.905c0-18.243,0.748-33.723,0.748-33.723L444.217,240.581z"/>
			<path style="fill:none;stroke:#FFB5AD;stroke-width:2;stroke-linecap:round;stroke-linejoin:round;stroke-miterlimit:10;" d="
				M413.755,466.187c-0.873-2.16-1.826-4.731-2.792-7.711c-5.023-15.503-10.382-42.076-6.64-79.465
				c0.773-7.721-1.815-15.406-7.041-21.143c-6.964-7.644-16.658-21.057-23.382-41.628"/>
			<path style="fill:#FFB5AD;" d="M372.896,287.384c0,0,39.763,16.778,60.448-7.144c3.499-4.046,8.068-7.055,13.12-8.814
				c8.414-2.931,14.207-9.968,14.207-9.968l-1.828-1.359l-14.625-19.518L372.896,287.384z"/>
			<path style="fill:#FFB5AD;" d="M396.065,311.888c19.372,0,33.634,20.785,56.175,68.099c22.541,47.314,40.07,78.624,40.07,78.624
				h-50.66c0,0-21.48-31.974-25.485-67.686C412.16,355.214,370.146,311.888,396.065,311.888z"/>
			<g>
				<path style="fill:#FFFFFF;" d="M444.357,474.644L444.357,474.644c4.643-12.812,16.811-21.345,30.438-21.345h1.297
					c-26.625-41.25-23.852-91.875,30.375-99.003l20.156,120.378L444.357,474.644"/>
			</g>
			<path style="fill:#FFFFFF;" d="M420.217,308.55l13.057,137.718c0.216,2.28-0.256,4.574-1.33,6.596
				c-2.185,4.114-3.392,7.539-3.976,10.362c-1.222,5.909,3.28,11.448,9.314,11.448h26.033l7.528-153.375L420.217,308.55z"/>
			
				<line style="fill:none;stroke:#FFB5AD;stroke-width:2;stroke-linecap:round;stroke-linejoin:round;stroke-miterlimit:10;" x1="463.698" y1="466.855" x2="469.058" y2="357.657"/>
			<path style="fill:none;stroke:#FFB5AD;stroke-width:2;stroke-linecap:round;stroke-linejoin:round;stroke-miterlimit:10;" d="
				M421.119,318.057l12.156,128.211c0.216,2.28-0.256,4.574-1.33,6.596c-2.185,4.114-3.392,7.539-3.976,10.362
				c-1.222,5.909,3.28,11.448,9.314,11.448"/>
			<path style="fill:#9E5A53;" d="M516.281,337.98c6.506-3.068,11.995-7.412,16.333-12.583
				c-28.891-31.071-63.682-57.745-71.944-63.939c-13.137,13.984-17.148,35.1-8.469,53.508
				C463.541,339.016,492.231,349.32,516.281,337.98z"/>
			<g>
				<g>
					<g>
						<path style="fill:#FFFFFF;" d="M413.994,138.59c0,0-15.106,15.028-20.052,41.178l15.94,1.535l15.94,1.535
							C425.955,156.224,413.994,138.59,413.994,138.59z"/>
						<path style="fill:#FFB5AD;" d="M413.055,148.339c0,0-8.177,11.933-11.375,32.173l8.202,0.79l8.202,0.79
							C418.806,161.613,413.055,148.339,413.055,148.339z"/>
					</g>
					<g>
						<path style="fill:#FFFFFF;" d="M309.209,183.131c0,0,21.303-0.448,43.564,14.137l-9.956,12.542l-9.956,12.542
							C313.606,203.98,309.209,183.131,309.209,183.131z"/>
						<path style="fill:#FFB5AD;" d="M316.88,189.221c0,0,14.267,2.393,31.06,14.135l-5.123,6.454l-5.123,6.454
							C322.447,202.572,316.88,189.221,316.88,189.221z"/>
					</g>
				</g>
				<path style="fill:#FFFFFF;" d="M414.274,284.776L414.274,284.776c-30.906,13.137-66.664-0.568-80.871-30.997l0,0
					c-11.987-25.673-0.298-56.168,25.777-67.252l22.583-9.599c26.075-11.084,56.144,1.662,66.311,28.108l0,0
					C460.125,236.381,445.18,271.639,414.274,284.776z"/>
				<path style="fill:#FFB5BF;" d="M406.336,244.938c1.089,2.33-1.677,5.924-6.179,8.028c-4.501,2.103-9.033,1.919-10.122-0.411
					c-1.089-2.33,1.677-5.924,6.179-8.028C400.716,242.424,405.247,242.608,406.336,244.938z"/>
				<ellipse style="fill:#FFB5BF;" cx="370.719" cy="240.581" rx="9.264" ry="7.407"/>
				<path style="fill:#9E5A53;" d="M381.763,176.928l-22.077,9.384c0.769,4.191,1.992,8.356,3.724,12.431
					c13.104,30.827,49.585,44.826,81.484,31.267c2.556-1.087,4.993-2.332,7.329-3.692c-0.123-7.096-1.459-14.286-4.148-21.282l0,0
					C437.907,178.589,407.838,165.844,381.763,176.928z"/>
				<g>
					<g>
						<path style="fill:none;stroke:#472927;stroke-width:2;stroke-linecap:round;stroke-linejoin:round;stroke-miterlimit:10;" d="
							M364.943,229.938c-2.927-10.478,4.777-18,12.189-5.181"/>
						<path style="fill:#472927;" d="M404.73,209.535c1.902,4.475,1.305,9.012-1.334,10.134c-2.639,1.122-6.32-1.597-8.223-6.072
							c-1.902-4.475-1.305-9.012,1.334-10.134C399.147,202.342,402.828,205.06,404.73,209.535z"/>
					</g>
					<path style="fill:#472927;" d="M384.817,226.831l8.176-3.475c1.737-0.738,3.539,0.904,2.964,2.702l-1.575,4.925
						c-0.672,2.103-3.056,3.116-5.037,2.141l-4.639-2.284C383.012,230.006,383.08,227.569,384.817,226.831z"/>
					<path style="fill:none;stroke:#472927;stroke-width:1.0905;stroke-miterlimit:10;" d="M406.421,229.367
						c0,0-2.617,7.436-13.943,5.927c-6.773,9.202-13.943,5.927-13.943,5.927"/>
				</g>
				<g>
					<g>
						
							<line style="fill:none;stroke:#472927;stroke-width:1.0905;stroke-linecap:round;stroke-linejoin:round;stroke-miterlimit:10;" x1="424.965" y1="217.762" x2="450.854" y2="214.694"/>
						
							<line style="fill:none;stroke:#472927;stroke-width:1.0905;stroke-linecap:round;stroke-linejoin:round;stroke-miterlimit:10;" x1="425.507" y1="227.34" x2="452.117" y2="230.183"/>
						
							<line style="fill:none;stroke:#472927;stroke-width:1.0905;stroke-linecap:round;stroke-linejoin:round;stroke-miterlimit:10;" x1="424.04" y1="237.76" x2="449.211" y2="246.397"/>
					</g>
					<g>
						
							<line style="fill:none;stroke:#472927;stroke-width:1.0905;stroke-linecap:round;stroke-linejoin:round;stroke-miterlimit:10;" x1="358.603" y1="245.971" x2="338.428" y2="262.483"/>
						
							<line style="fill:none;stroke:#472927;stroke-width:1.0905;stroke-linecap:round;stroke-linejoin:round;stroke-miterlimit:10;" x1="365.123" y1="253.008" x2="348.704" y2="274.14"/>
						
							<line style="fill:none;stroke:#472927;stroke-width:1.0905;stroke-linecap:round;stroke-linejoin:round;stroke-miterlimit:10;" x1="373.645" y1="259.182" x2="362.396" y2="283.3"/>
					</g>
				</g>
			</g>
			<g>
				<path style="fill:#FFFFFF;" d="M444.357,474.644L444.357,474.644c4.643-12.812,16.811-21.345,30.438-21.345h1.297
					c-26.625-41.25-23.852-91.875,30.375-99.003l20.156,120.378L444.357,474.644"/>
			</g>
			<g>
				<g>
					<path style="fill:none;stroke:#FFB5AD;stroke-width:2;stroke-linecap:round;stroke-linejoin:round;stroke-miterlimit:10;" d="
						M444.357,474.644"/>
					<path style="fill:none;stroke:#FFB5AD;stroke-width:2;stroke-linecap:round;stroke-linejoin:round;stroke-miterlimit:10;" d="
						M444.357,474.644L444.357,474.644c4.643-12.812,16.811-21.345,30.438-21.345h1.297c-26.625-41.25-23.852-91.875,30.375-99.003"
						/>
				</g>
				
					<line style="fill:none;stroke:#FFB5AD;stroke-width:2;stroke-linecap:round;stroke-linejoin:round;stroke-miterlimit:10;" x1="476.092" y1="453.299" x2="492.311" y2="453.299"/>
			</g>
			<path style="fill:none;stroke:#42393A;stroke-miterlimit:10;" d="M444.357,474.644"/>
			<path style="fill:none;stroke:#FFB5AD;stroke-width:2;stroke-linecap:round;stroke-linejoin:round;stroke-miterlimit:10;" d="
				M437.554,458.476c-2.32,5.719-1.195,12.094-1.195,12.094"/>
			<path style="fill:none;stroke:#FFB5AD;stroke-width:2;stroke-linecap:round;stroke-linejoin:round;stroke-miterlimit:10;" d="
				M446.906,458.476c0,0-2.549,5.227-1.98,12.402"/>
			<path style="fill:none;stroke:#FFB5AD;stroke-width:2;stroke-linecap:round;stroke-linejoin:round;stroke-miterlimit:10;" d="
				M463.078,461.944c0,0-7.307,3.241-8.994,12.73"/>
			<path style="fill:none;stroke:#FFB5AD;stroke-width:2;stroke-linecap:round;stroke-linejoin:round;stroke-miterlimit:10;" d="
				M474.738,461.944c0,0-7.307,3.241-8.994,12.73"/>
			<path style="fill:none;stroke:#FFB5AD;stroke-width:2;stroke-linecap:round;stroke-linejoin:round;stroke-miterlimit:10;" d="
				M421.119,313.726c0,0-1.025-20.438,20.912-20.156"/>
		</g>
		<g>
			<path style="fill:#262D54;" d="M180.012,274.267c6.992,2.972,10.414,10.824,8.007,18.03c-3.136,9.388-5.179,19.171-5.995,29.033
				c-1.19,14.338,0.246,28.867,4.68,42.379c4.405,13.515,11.88,25.94,21.991,36.098c10.082,10.203,22.712,18.052,36.506,23.681
				l-6.965,18.748c-8.107-2.844-16.061-6.368-23.652-10.711c-7.589-4.338-14.807-9.505-21.374-15.487
				c-6.569-5.976-12.476-12.764-17.503-20.166c-5.033-7.4-9.186-15.402-12.398-23.741c-6.441-16.697-9.102-34.626-8.541-52.293
				c0.394-12.289,2.308-24.489,5.635-36.324c2.346-8.344,11.565-12.667,19.542-9.276L180.012,274.267z"/>
			<path style="fill:#1C213D;" d="M208.694,399.807c-3.442-3.458-6.571-7.184-9.385-11.121c1.102,7.171,1.472,14.611,1.965,21.53
				c0.628,8.821,5.516,16.842,13.188,21.24c0.04,0.023,0.081,0.046,0.121,0.069c7.591,4.344,15.545,7.867,23.652,10.711
				l6.965-18.748C231.406,417.859,218.776,410.01,208.694,399.807z"/>
			<path style="fill:#262D54;" d="M228.218,243.019c0,0-16.242-5.344-32.484,7.172c0,0,4.641,18.984,27.141,23.765L228.218,243.019z
				"/>
			<path style="fill:#262D54;" d="M313.465,209.352c0,0,4.98-16.357-7.895-32.316c0,0-18.876,5.063-23.154,27.664L313.465,209.352z"
				/>
			<path style="fill:#1C213D;" d="M223.534,249.352c0,0-8.684-2.857-17.368,3.835c0,0,2.481,10.15,14.511,12.707L223.534,249.352z"
				/>
			<path style="fill:#1C213D;" d="M307.028,204.811c0,0,2.663-8.746-4.221-17.279c0,0-10.092,2.707-12.38,14.791L307.028,204.811z"
				/>
			<path style="fill:#262D54;" d="M336.217,268.8c0,0,60.66,69.426,57.547,193.021c-0.18,7.141-5.991,12.853-13.134,12.853H233.217
				c-6.026,0-11.305-4.091-12.742-9.944c-4.678-19.056-9.639-62.339,26.305-101.806c0,0,2.063-32.297,18.187-57.961L336.217,268.8z"
				/>
			<path style="fill:#3A4480;" d="M312.234,340.964c19.687-2.374,27.937,20.501,30.296,52.08
				c2.773,37.133-9.55,43.944-23.627,45.494c-14.077,1.55-25.383-13.541-27.302-38.833
				C289.682,374.414,295.85,342.94,312.234,340.964z"/>
			<polygon style="fill:#262D54;" points="340.214,353.288 364.781,385.25 348.656,439.726 330.909,445.687 			"/>
			<path style="fill:#262D54;" d="M277.905,357.3l28.692-2.92c7.864-0.8,15.129,4.276,17.082,11.935l2.755,10.805
				c1.881,7.376-2.588,14.877-9.97,16.735l0,0c-6.876,1.73-13.731-2.042-16.176-8.345l-21.683,9.858L277.905,357.3z"/>
			<path style="fill:#1C213D;" d="M336.217,268.8l-71.25,36.164c-2.384,3.795-4.454,7.735-6.262,11.694
				c3.025,2.277,23.671,15.905,66.587,0.234c3.987-1.456,8.265-1.805,12.456-1.139c3.644,0.579,7.132,0.641,10.427,0.331
				c7.803-0.734,12.319-9.206,8.567-16.087C345.57,279.511,336.217,268.8,336.217,268.8z"/>
			<g>
				<path style="fill:#3A4480;" d="M269.406,355.987c3.991-8.038-7.362-26.364-12.817-34.397
					c-2.661,6.608-4.617,13.117-6.047,18.952C255.967,349.39,265.741,363.367,269.406,355.987z"/>
				<path style="fill:#3A4480;" d="M261.615,374.452c3.47-7.22-6.601-19.886-12.689-26.583c-1.755,8.975-2.145,15.056-2.145,15.056
					c-1.145,1.257-2.247,2.518-3.311,3.783C249.826,372.017,259.445,378.966,261.615,374.452z"/>
			</g>
			<path style="fill:none;stroke:#1C213D;stroke-width:2;stroke-linecap:round;stroke-linejoin:round;stroke-miterlimit:10;" d="
				M262.343,385.8c20.625,9.75,43.21,38.625,43.21,88.875"/>
			
				<line style="fill:none;stroke:#1C213D;stroke-width:2;stroke-linecap:round;stroke-linejoin:round;stroke-miterlimit:10;" x1="378.967" y1="421.899" x2="368.842" y2="464.086"/>
			<path style="fill:none;stroke:#1C213D;stroke-width:2;stroke-linecap:round;stroke-linejoin:round;stroke-miterlimit:10;" d="
				M360.405,452.461c0,0,10.5,8.625,11.063,21.375"/>
			
				<line style="fill:none;stroke:#1C213D;stroke-width:2;stroke-linecap:round;stroke-linejoin:round;stroke-miterlimit:10;" x1="283.947" y1="330.862" x2="288.405" y2="355.987"/>
			<path style="fill:none;stroke:#1C213D;stroke-width:2;stroke-linecap:round;stroke-linejoin:round;stroke-miterlimit:10;" d="
				M277.905,357.3l28.692-2.92c7.864-0.8,15.129,4.276,17.082,11.935l2.755,10.805c1.881,7.376-2.588,14.877-9.97,16.735l0,0
				c-7.961,2.003-15.892-3.368-16.986-11.504l-0.948-7.05"/>
			
				<line style="fill:none;stroke:#1C213D;stroke-width:2;stroke-linecap:round;stroke-linejoin:round;stroke-miterlimit:10;" x1="277.081" y1="396.051" x2="299.942" y2="385.8"/>
			
				<line style="fill:none;stroke:#1C213D;stroke-width:2;stroke-linecap:round;stroke-linejoin:round;stroke-miterlimit:10;" x1="309.639" y1="381.675" x2="308.77" y2="393.567"/>
			
				<line style="fill:none;stroke:#1C213D;stroke-width:2;stroke-linecap:round;stroke-linejoin:round;stroke-miterlimit:10;" x1="317.092" y1="379.987" x2="324.024" y2="388.878"/>
			
				<line style="fill:none;stroke:#1C213D;stroke-width:2;stroke-linecap:round;stroke-linejoin:round;stroke-miterlimit:10;" x1="344.936" y1="460.57" x2="341.842" y2="473.836"/>
			
				<line style="fill:none;stroke:#1C213D;stroke-width:2;stroke-linecap:round;stroke-linejoin:round;stroke-miterlimit:10;" x1="357.311" y1="461.555" x2="359.139" y2="473.836"/>
			<path style="fill:#1C213D;" d="M300.178,435.363c0,0,5.375,15.78,5.375,39.311h20.54
				C326.092,474.674,320.327,449.315,300.178,435.363z"/>
			
				<ellipse transform="matrix(0.8477 -0.5305 0.5305 0.8477 -95.0386 189.2152)" style="fill:#262D54;" cx="281.962" cy="260.099" rx="64.516" ry="55.406"/>
			<g>
				<path style="fill:#3A4480;" d="M268.973,229.878c3.156-1.362,2.71-15.527,2.035-25.055c-5.776,1.697-11.491,4.171-16.982,7.44
					C258.291,219.645,265.667,231.305,268.973,229.878z"/>
				<path style="fill:#3A4480;" d="M231.85,232.479c8.785,3.673,22.545,8.711,24.677,5.217c2.252-3.691-6.728-13.373-12.114-18.667
					C239.542,223.071,235.336,227.611,231.85,232.479z"/>
			</g>
			
				<path style="fill:none;stroke:#3A4480;stroke-width:1.2605;stroke-linecap:round;stroke-linejoin:round;stroke-miterlimit:10;" d="
				M259.624,254.386c-4.781-7.618-0.75-12.765,7.406-5.64"/>
			
				<path style="fill:none;stroke:#3A4480;stroke-width:1.2605;stroke-linecap:round;stroke-linejoin:round;stroke-miterlimit:10;" d="
				M285.23,234.292c-7.419-7.211-12.244-2.711-7.513,6.289"/>
			<g>
				<g>
					
						<line style="fill:none;stroke:#1C213D;stroke-linecap:round;stroke-linejoin:round;stroke-miterlimit:10;" x1="250.014" y1="280.143" x2="228.218" y2="300.3"/>
					
						<line style="fill:none;stroke:#1C213D;stroke-linecap:round;stroke-linejoin:round;stroke-miterlimit:10;" x1="258.311" y1="285.768" x2="246.78" y2="314.362"/>
					
						<line style="fill:none;stroke:#1C213D;stroke-linecap:round;stroke-linejoin:round;stroke-miterlimit:10;" x1="268.26" y1="290.503" x2="267.03" y2="319.425"/>
				</g>
				<g>
					
						<line style="fill:none;stroke:#1C213D;stroke-linecap:round;stroke-linejoin:round;stroke-miterlimit:10;" x1="309.697" y1="236.303" x2="332.722" y2="217.562"/>
					
						<line style="fill:none;stroke:#1C213D;stroke-linecap:round;stroke-linejoin:round;stroke-miterlimit:10;" x1="314.097" y1="245.309" x2="344.03" y2="237.921"/>
					
						<line style="fill:none;stroke:#1C213D;stroke-linecap:round;stroke-linejoin:round;stroke-miterlimit:10;" x1="317.383" y1="255.826" x2="346.19" y2="258.682"/>
				</g>
			</g>
			<g>
				<path style="fill:#3A4480;" d="M266.973,260.409c1.664,3.009-0.743,7.526-5.377,10.089c-4.634,2.563-9.74,2.202-11.404-0.806
					c-1.664-3.009,0.743-7.526,5.377-10.089C260.203,257.04,265.309,257.401,266.973,260.409z"/>
				<path style="fill:#3A4480;" d="M303.212,226.423c2.563,2.292,1.778,7.35-1.753,11.297c-3.531,3.947-8.47,5.289-11.033,2.996
					c-2.563-2.292-1.778-7.35,1.753-11.297C295.71,225.472,300.65,224.131,303.212,226.423z"/>
			</g>
			<g>
				<path style="fill:#FFFFFF;" d="M283.129,257.116c-1.14,2.955-3.891,5.292-3.891,5.292c6.98,7.471,14.486,11.98,16.558,10.297
					c2.072-1.683-0.806-9.953-6.69-18.314C289.105,254.39,285.999,256.711,283.129,257.116z"/>
				<path style="fill:#0B0E21;" d="M274.698,251.169l4.335-3.523c1.463-1.189,3.615,0.086,3.276,1.94l-0.974,5.321l-5.408-0.135
					C274.042,254.725,273.234,252.358,274.698,251.169z"/>
				<g>
					
						<path style="fill:none;stroke:#0B0E21;stroke-width:1.2605;stroke-linecap:round;stroke-linejoin:round;stroke-miterlimit:10;" d="
						M280.885,254.355l2.244,2.761c0,0-2.891,7.268-10.596,8.61"/>
					
						<path style="fill:none;stroke:#0B0E21;stroke-width:1.2605;stroke-linecap:round;stroke-linejoin:round;stroke-miterlimit:10;" d="
						M283.129,257.116c0,0,7.706-1.342,10.596-8.61"/>
				</g>
			</g>
			<path style="fill:none;stroke:#1C213D;stroke-width:2;stroke-linecap:round;stroke-linejoin:round;stroke-miterlimit:10;" d="
				M341.842,336.3c0,1.875-13.738,137.024-13.738,137.024"/>
			<path style="fill:#3A4480;" d="M306.505,275.291c1.236,1.458,0.243,4.332-2.219,6.419c-2.461,2.087-5.459,2.597-6.695,1.14
				c-1.236-1.458-0.243-4.332,2.219-6.419C302.271,274.343,305.268,273.833,306.505,275.291z"/>
		</g>
		<g>
			<path style="fill:#FF425F;" d="M339.196,60.155c-15.056-6.204-24.217,19.377-24.217,19.377s-18.38-20.012-29.843-8.446
				c-11.463,11.566,3.106,36.364,38.565,51.584C350.462,94.869,354.252,66.358,339.196,60.155z"/>
			<path style="fill:#FF425F;" d="M376.245,99.462c-3.347-6.143-13.171,0.932-13.171,0.932s-0.786-12.081-7.655-10.758
				c-6.869,1.323-8.617,14.19-0.896,28.882C370.772,115.135,379.592,105.605,376.245,99.462z"/>
			<path style="fill:none;stroke:#FFFFFF;stroke-miterlimit:10;" d="M379.439,134.688c9.423-11.485,15.031-26.216,14.863-42.27
				c-0.365-34.924-28.556-63.767-63.464-64.883c-37.912-1.212-68.901,29.748-67.736,67.651c1.061,34.54,29.292,62.625,63.836,63.528
				c11.443,0.299,22.238-2.344,31.701-7.213c3.101-1.596,6.835-1.298,9.581,0.852l16.427,12.863l-6.967-21.382
				C376.655,140.685,377.338,137.248,379.439,134.688z"/>
		</g>
	</g>
</g>
</svg>
